<?xml version="1.0" encoding="iso-8859-1"?>
<!-- Generator: Adobe Illustrator 19.0.0, SVG Export Plug-In . SVG Version: 6.00 Build 0)  -->
<svg version="1.1" id="Layer_1" xmlns="http://www.w3.org/2000/svg" xmlns:xlink="http://www.w3.org/1999/xlink" x="0px" y="0px"
	 viewBox="0 0 330 330" style="enable-background:new 0 0 330 330;" xml:space="preserve">
<path id="XMLID_337_" stroke="white" d="M253.858,234.26c-2.322-5.605-7.792-9.26-13.858-9.26h-60V15c0-8.284-6.716-15-15-15
	c-8.284,0-15,6.716-15,15v210H90c-6.067,0-11.537,3.655-13.858,9.26c-2.321,5.605-1.038,12.057,3.252,16.347l75,75
	C157.322,328.536,161.161,330,165,330s7.678-1.464,10.607-4.394l75-75C254.896,246.316,256.18,239.865,253.858,234.26z M165,293.787
	L126.213,255h77.573L165,293.787z"/>
<g>
</g>
<g>
</g>
<g>
</g>
<g>
</g>
<g>
</g>
<g>
</g>
<g>
</g>
<g>
</g>
<g>
</g>
<g>
</g>
<g>
</g>
<g>
</g>
<g>
</g>
<g>
</g>
<g>
</g>
</svg>
